<svg class="logo-svg" viewBox="0 0 130 29" fill="none" xmlns="http://www.w3.org/2000/svg">
    <path
        d="M19.6451 20.9596C19.6451 24.6346 17.1786 28.8462 10.1098 28.8462C5.50759 28.8462 2.13572 27.2942 0 24.2308L2.90179 22.2288C4.75313 24.3923 6.38393 25.6904 10.0924 25.6904C14.7353 25.6904 16.0933 23.5673 16.0933 21.1558C16.0933 18.5019 14.7353 16.7019 9.39599 15.8827C4.0567 15.0635 0.615179 12.5019 0.615179 7.59808C0.615179 3.55385 3.29063 0 9.78482 0C14.3058 0 17.138 1.51154 19.1576 4.61538L16.4009 6.57692C14.8804 4.61538 13.238 3.18462 9.65715 3.18462C6.36652 3.18462 4.14955 4.65577 4.14955 7.59808C4.14955 10.95 6.69732 12.0923 10.8469 12.8308C16.3196 13.7654 19.6451 15.7327 19.6451 20.9596ZM26.0987 3.51346H34.7344V28.5173H38.2688V3.51346H46.8987V0.328846H26.0987V3.51346ZM64.3674 0.328846L74.2335 28.5231H70.4902L68.3139 22.0673H57.1304L54.954 28.5173H51.2107L61.0768 0.323077L64.3674 0.328846ZM67.1996 18.8769L62.7192 5.63654L58.2272 18.8769H67.1996ZM100.593 0.328846H96.6875L90.9188 10.7885L85.1616 0.328846H81.2558L88.8585 13.9788L80.3911 28.5173H84.2969L90.913 17.4462L97.529 28.5173H101.435L92.9326 13.9731L100.593 0.328846ZM129.24 12.8712V15.975C129.24 25.0846 125.253 28.8462 118.962 28.8462C112.671 28.8462 108.684 25.0846 108.684 15.975V12.8712C108.672 3.76154 112.659 0 118.944 0C125.229 0 129.222 3.76154 129.222 12.8712H129.24ZM125.705 12.8712C125.705 5.88462 123.32 3.18462 118.967 3.18462C114.615 3.18462 112.2 5.88462 112.2 12.8712V15.975C112.2 22.9615 114.586 25.6558 118.938 25.6558C123.291 25.6558 125.676 22.9615 125.676 15.975L125.705 12.8712Z"
        fill="#fff">
    </path>
</svg>
